<svg width="164" height="163" viewBox="0 0 164 163" fill="none" xmlns="http://www.w3.org/2000/svg">
<ellipse cx="82" cy="128.438" rx="81.5" ry="34.5628" fill="url(#paint0_radial)"/>
<mask id="mask0" mask-type="alpha" maskUnits="userSpaceOnUse" x="53" y="1" width="59" height="60">
<ellipse cx="82.4243" cy="31.1494" rx="29.2891" ry="29.4424" fill="#C4C4C4"/>
</mask>
<g mask="url(#mask0)">
<ellipse cx="82.4243" cy="31.1494" rx="29.2891" ry="29.4424" fill="url(#paint1_linear)"/>
<path d="M72.4816 23.5922L74.9601 25.8068L74.9911 25.7679C75.9601 24.5502 76.5212 23.0584 76.5949 21.504L76.7228 18.804C76.8274 16.5962 78.5657 14.8151 80.7702 14.6568C82.0849 14.5624 83.2865 13.879 84.0397 12.7974L85.4202 10.8148C85.6863 10.4327 85.9853 10.0745 86.3137 9.74436L87.9736 8.0758C88.5132 7.53334 89.1576 7.10638 89.8675 6.82092L93.3777 5.40951C95.2811 4.64418 95.8531 2.22511 94.4942 0.688303C94.0975 0.239715 93.5745 -0.0784388 92.9937 -0.224388L85.1444 -2.19698C84.1882 -2.43729 83.1958 -2.49876 82.2173 -2.37831L67.168 -0.525892C64.502 -0.19774 62.1787 1.44641 60.9824 3.85141L60.8713 4.07486C59.3134 7.20696 60.0573 10.9952 62.684 13.3056L63.5342 14.0534C64.4879 14.8923 65.0793 16.0681 65.1842 17.3338C65.3431 19.2509 66.6072 20.8985 68.4177 21.5485L70.0074 22.1192C70.9191 22.4466 71.7592 22.9467 72.4816 23.5922Z" fill="url(#paint2_linear)"/>
<path d="M87.9046 30.6813L86.9424 30.9089C85.2297 31.314 83.9199 32.6956 83.6066 34.4275C83.3936 35.6051 83.6667 36.8187 84.3635 37.7916L89.7459 45.3063C90.5128 46.377 91.0035 47.6205 91.1744 48.9263L92.3459 57.8762C92.6836 60.4558 95.4659 61.9308 97.7904 60.7625C99.0436 60.1326 99.8449 58.8604 99.8717 57.458L100.169 41.9168C100.221 39.1951 98.8856 36.6336 96.6242 35.1181L95.9894 34.6927C95.4379 34.3231 94.9348 33.8859 94.492 33.3913L93.6923 32.4981C92.2416 30.8778 90.021 30.1808 87.9046 30.6813Z" fill="url(#paint3_linear)"/>
</g>
<path d="M102.496 104.757C102.429 104.13 102.884 103.567 103.511 103.5C104.102 103.438 104.643 103.839 104.754 104.423L110.274 133.396L105.597 133.893L102.496 104.757Z" fill="url(#paint4_linear)"/>
<path d="M77.168 104.379C77.168 103.054 78.2416 101.98 79.5661 101.98H82.0598C83.3183 101.98 84.3627 102.953 84.4519 104.209L86.3295 130.632H77.168V104.379Z" fill="url(#paint5_linear)"/>
<path d="M74.1143 104.379C74.1143 103.054 73.0406 101.98 71.7162 101.98H69.2224C67.9639 101.98 66.9195 102.953 66.8303 104.209L64.9528 130.632H74.1143V104.379Z" fill="url(#paint6_linear)"/>
<path d="M77.168 85.6074H84.2936V98.417C84.2936 100.385 82.6985 101.98 80.7308 101.98C78.7631 101.98 77.168 100.385 77.168 98.417V85.6074Z" fill="#F7F7F7"/>
<path fill-rule="evenodd" clip-rule="evenodd" d="M84.2053 97.8867C83.8453 99.9374 82.4264 101.468 80.7308 101.468C79.0352 101.468 77.6162 99.9374 77.2562 97.8867C77.1985 98.2158 77.168 98.5582 77.168 98.9098C77.168 101.453 78.7631 103.515 80.7308 103.515C82.6985 103.515 84.2936 101.453 84.2936 98.9098C84.2936 98.5582 84.2631 98.2158 84.2053 97.8867Z" fill="#D2D5D8"/>
<path fill-rule="evenodd" clip-rule="evenodd" d="M84.2053 90.7246C83.8453 91.8432 82.4264 92.6782 80.7308 92.6782C79.0352 92.6782 77.6162 91.8432 77.2562 90.7246C77.1985 90.9041 77.168 91.0909 77.168 91.2827C77.168 92.6699 78.7631 93.7944 80.7308 93.7944C82.6985 93.7944 84.2936 92.6699 84.2936 91.2827C84.2936 91.0909 84.2631 90.9041 84.2053 90.7246Z" fill="#D2D5D8"/>
<path d="M66.9893 85.6074H74.1149V98.417C74.1149 100.385 72.5198 101.98 70.5521 101.98C68.5844 101.98 66.9893 100.385 66.9893 98.417V85.6074Z" fill="#F7F7F7"/>
<path fill-rule="evenodd" clip-rule="evenodd" d="M74.0256 97.8867C73.6657 99.9374 72.2467 101.468 70.5511 101.468C68.8555 101.468 67.4365 99.9374 67.0765 97.8867C67.0188 98.2158 66.9883 98.5582 66.9883 98.9098C66.9883 101.453 68.5834 103.515 70.5511 103.515C72.5188 103.515 74.1139 101.453 74.1139 98.9098C74.1139 98.5582 74.0834 98.2158 74.0256 97.8867Z" fill="#D2D5D8"/>
<path fill-rule="evenodd" clip-rule="evenodd" d="M74.0256 90.7246C73.6656 91.8432 72.2467 92.6782 70.5511 92.6782C68.8555 92.6782 67.4366 91.8432 67.0766 90.7246C67.0188 90.9041 66.9883 91.0909 66.9883 91.2827C66.9883 92.6699 68.5834 93.7944 70.5511 93.7944C72.5188 93.7944 74.1139 92.6699 74.1139 91.2827C74.1139 91.0909 74.0834 90.9041 74.0256 90.7246Z" fill="#D2D5D8"/>
<path d="M85.3115 65.1426C87.5603 65.1426 89.3833 66.9656 89.3833 69.2144V80.1401C89.3833 81.4646 88.3096 82.5382 86.9852 82.5382H86.5106C85.8484 82.5382 85.3115 82.0014 85.3115 81.3392V65.1426Z" fill="#F7F7F7"/>
<path d="M65.9707 65.1426C63.7219 65.1426 61.8989 66.9656 61.8989 69.2144V80.1401C61.8989 81.4646 62.9726 82.5382 64.297 82.5382H64.7716C65.4339 82.5382 65.9707 82.0014 65.9707 81.3392V65.1426Z" fill="#F7F7F7"/>
<path d="M64.9521 65.0957C64.9521 63.9911 65.8476 63.0957 66.9521 63.0957H84.329C85.4336 63.0957 86.329 63.9911 86.329 65.0957V82.8581C86.329 85.507 84.1817 87.6543 81.5328 87.6543H69.7484C67.0995 87.6543 64.9521 85.507 64.9521 82.8581V65.0957Z" fill="#D2D5D8"/>
<path d="M65.9707 63.0957H85.3117V81.8348C85.3117 84.4837 83.1643 86.631 80.5155 86.631H70.7669C68.118 86.631 65.9707 84.4837 65.9707 81.8348V63.0957Z" fill="#F7F7F7"/>
<rect x="68.417" y="76.8066" width="15.2812" height="6.82723" fill="#D2D5D8"/>
<rect x="68.0068" y="73.3281" width="9.16151" height="1.02327" fill="#D2D5D8"/>
<rect x="68.0068" y="70.2598" width="9.16151" height="1.02327" fill="#D2D5D8"/>
<rect x="68.0068" y="67.1895" width="9.16151" height="1.02327" fill="#D2D5D8"/>
<ellipse cx="80.8994" cy="70.7711" rx="2.54486" ry="2.55819" fill="#D2D5D8"/>
<ellipse cx="82.7665" cy="63.607" rx="2.54486" ry="2.55819" fill="#F7F7F7"/>
<ellipse cx="75.1322" cy="57.9797" rx="5.08973" ry="5.11637" fill="#D2D5D8"/>
<path fill-rule="evenodd" clip-rule="evenodd" d="M79.9889 59.5145C80.1403 59.03 80.2219 58.5144 80.2219 57.9797C80.2219 55.154 77.9432 52.8633 75.1322 52.8633C72.3212 52.8633 70.0425 55.154 70.0425 57.9797C70.0425 58.5144 70.1241 59.03 70.2755 59.5145C70.924 57.4387 72.8532 55.933 75.1322 55.933C77.4112 55.933 79.3404 57.4387 79.9889 59.5145Z" fill="#EFEFEF"/>
<ellipse cx="68.5156" cy="63.607" rx="2.54486" ry="2.55819" fill="#F7F7F7"/>
<rect x="72.0781" y="59.0039" width="6.10767" height="4.0931" fill="#D2D5D8"/>
<rect x="104.411" y="61.5605" width="23.4127" height="15.3491" fill="#F6F6F6"/>
<g opacity="0.6">
<path fill-rule="evenodd" clip-rule="evenodd" d="M119.73 65.9444L122.781 71.9388C123.279 72.9159 122.768 74.2184 121.832 74.3164C120.462 74.4595 119.896 73.426 119.259 72.1922L119.082 71.8447C118.918 71.5185 116.675 67.1245 116.675 67.1245L117.276 65.9444C117.821 64.8727 119.185 64.8727 119.73 65.9444ZM115.439 65.9445L118.78 72.5083C119.158 73.2399 119.542 73.9009 120.09 74.3502H119.717H111.161C110.071 74.3502 109.389 73.0105 109.934 71.9389L112.985 65.9445C113.53 64.8728 114.894 64.8728 115.439 65.9445Z" fill="#D2D5D8"/>
</g>
<rect x="102.375" y="59.5137" width="2.03589" height="44.0008" fill="#F6F6F6"/>
<defs>
<radialGradient id="paint0_radial" cx="0" cy="0" r="1" gradientUnits="userSpaceOnUse" gradientTransform="translate(80.8188 110.938) rotate(90) scale(32.0625 80.4763)">
<stop stop-color="#EFF0F1"/>
<stop offset="1" stop-color="#EDEFF1" stop-opacity="0"/>
</radialGradient>
<linearGradient id="paint1_linear" x1="81.9998" y1="1.70703" x2="83.4059" y2="56.9084" gradientUnits="userSpaceOnUse">
<stop stop-color="#EAEAEA"/>
<stop offset="1" stop-color="#E2E3E5" stop-opacity="0"/>
</linearGradient>
<linearGradient id="paint2_linear" x1="76.2481" y1="28.8803" x2="73.9218" y2="-4.4633" gradientUnits="userSpaceOnUse">
<stop stop-color="#BEC6CB"/>
<stop offset="1" stop-color="#F1F1F1" stop-opacity="0"/>
</linearGradient>
<linearGradient id="paint3_linear" x1="82.5" y1="32.5" x2="83.271" y2="55.9191" gradientUnits="userSpaceOnUse">
<stop stop-color="#BEC6CB" stop-opacity="0.6"/>
<stop offset="1" stop-color="white" stop-opacity="0"/>
</linearGradient>
<linearGradient id="paint4_linear" x1="104.454" y1="103.4" x2="107.67" y2="133.672" gradientUnits="userSpaceOnUse">
<stop stop-color="#DBDFE2"/>
<stop offset="1" stop-color="#CACACA" stop-opacity="0"/>
</linearGradient>
<linearGradient id="paint5_linear" x1="81.2397" y1="101.98" x2="81.2397" y2="130.632" gradientUnits="userSpaceOnUse">
<stop stop-color="#DBDFE2"/>
<stop offset="1" stop-color="#CACACA" stop-opacity="0"/>
</linearGradient>
<linearGradient id="paint6_linear" x1="70.0425" y1="101.98" x2="70.0425" y2="130.632" gradientUnits="userSpaceOnUse">
<stop stop-color="#DBDFE2"/>
<stop offset="1" stop-color="#CACACA" stop-opacity="0"/>
</linearGradient>
</defs>
</svg>
