<?xml version="1.0" encoding="utf-8"?>
<!-- Generator: Adobe Illustrator 25.2.1, SVG Export Plug-In . SVG Version: 6.00 Build 0)  -->
<svg version="1.1" id="图层_1" xmlns="http://www.w3.org/2000/svg" xmlns:xlink="http://www.w3.org/1999/xlink" x="0px" y="0px"
	 viewBox="0 0 34 36" style="enable-background:new 0 0 34 36;" xml:space="preserve">
<style type="text/css">
	.st0{fill:url(#SVGID_1_);}
	.st1{fill:url(#SVGID_2_);}
	.st2{fill:url(#SVGID_3_);}
	.st3{fill:url(#SVGID_4_);}
	.st4{fill:url(#SVGID_5_);}
	.st5{fill:url(#SVGID_6_);}
	.st6{fill:#1C2B36;}
	.st7{fill:#3DB485;}
</style>
<linearGradient id="SVGID_1_" gradientUnits="userSpaceOnUse" x1="17.3924" y1="24.9657" x2="17.3924" y2="35.1703" gradientTransform="matrix(1 0 0 -1 0 35.89)">
	<stop  offset="0" style="stop-color:#3DB485"/>
	<stop  offset="1" style="stop-color:#3DB485;stop-opacity:0"/>
</linearGradient>
<path class="st0" d="M14.5,0.7h5.8l-1.5,10.2h-2.9L14.5,0.7z"/>
<linearGradient id="SVGID_2_" gradientUnits="userSpaceOnUse" x1="17.3924" y1="10.3875" x2="17.3924" y2="0.183" gradientTransform="matrix(1 0 0 -1 0 35.89)">
	<stop  offset="0" style="stop-color:#3DB485"/>
	<stop  offset="1" style="stop-color:#3DB485;stop-opacity:0"/>
</linearGradient>
<path class="st1" d="M20.3,35.7h-5.8l1.5-10.2h2.9L20.3,35.7z"/>
<linearGradient id="SVGID_3_" gradientUnits="userSpaceOnUse" x1="23.7048" y1="21.3214" x2="32.5422" y2="26.4237" gradientTransform="matrix(1 0 0 -1 0 35.89)">
	<stop  offset="0" style="stop-color:#3DB485"/>
	<stop  offset="1" style="stop-color:#3DB485;stop-opacity:0"/>
</linearGradient>
<path class="st2" d="M31.1,6.9l2.9,5l-9.6,3.8L23,13.3L31.1,6.9z"/>
<linearGradient id="SVGID_4_" gradientUnits="userSpaceOnUse" x1="11.0799" y1="14.0319" x2="2.2425" y2="8.9296" gradientTransform="matrix(1 0 0 -1 0 35.89)">
	<stop  offset="0" style="stop-color:#3DB485"/>
	<stop  offset="1" style="stop-color:#3DB485;stop-opacity:0"/>
</linearGradient>
<path class="st3" d="M3.7,29.5l-2.9-5l9.6-3.8l1.5,2.5L3.7,29.5z"/>
<linearGradient id="SVGID_5_" gradientUnits="userSpaceOnUse" x1="23.7048" y1="14.0327" x2="32.5422" y2="8.9304" gradientTransform="matrix(1 0 0 -1 0 35.89)">
	<stop  offset="0" style="stop-color:#3DB485"/>
	<stop  offset="1" style="stop-color:#3DB485;stop-opacity:0"/>
</linearGradient>
<path class="st4" d="M34,24.4l-2.9,5L23,23.1l1.5-2.5L34,24.4z"/>
<linearGradient id="SVGID_6_" gradientUnits="userSpaceOnUse" x1="11.2877" y1="21.3215" x2="2.4503" y2="26.4238" gradientTransform="matrix(1 0 0 -1 0 35.89)">
	<stop  offset="0" style="stop-color:#3DB485"/>
	<stop  offset="1" style="stop-color:#3DB485;stop-opacity:0"/>
</linearGradient>
<path class="st5" d="M1,12l2.9-5l8.1,6.4l-1.5,2.5L1,12z"/>
<circle class="st6" cx="17.5" cy="18.5" r="9.2"/>
<circle class="st7" cx="17.5" cy="18.5" r="7"/>
</svg>
